<?xml version="1.0" encoding="UTF-8" standalone="no"?>
<!DOCTYPE svg PUBLIC "-//W3C//DTD SVG 20010904//EN"
              "http://www.w3.org/TR/2001/REC-SVG-20010904/DTD/svg10.dtd">

<svg xmlns="http://www.w3.org/2000/svg" viewBox="0 0 1024 512">
	<g transform="translate(-30, 0)">
	  <path id="Auswahl"
			fill="darkblue" stroke="darkred" stroke-width="4"
			d="M 404.00,205.00
			   C 408.82,212.44 404.31,223.82 400.75,231.00
				 391.34,249.99 372.89,267.80 355.00,279.00
				 356.91,271.94 360.49,265.51 363.75,259.00
				 371.90,242.76 389.80,215.76 404.00,205.00 Z
			   M 229.00,108.00
			   C 242.60,101.03 261.87,98.12 277.00,100.30
				 290.28,102.21 295.55,109.28 289.68,122.00
				 284.39,133.44 275.50,142.78 267.17,152.00
				 250.01,171.00 220.78,195.37 199.00,209.00
				 200.22,202.49 204.88,193.32 207.57,187.00
				 207.57,187.00 224.95,145.00 224.95,145.00
				 227.88,137.18 233.18,124.34 231.66,116.00
				 231.66,116.00 229.00,108.00 229.00,108.00 Z
			   M 757.00,284.00
			   C 758.78,292.84 762.31,301.50 765.31,310.00
				 773.04,331.93 779.98,349.37 792.86,369.00
				 800.44,380.54 810.15,391.82 825.00,392.00
				 836.63,392.13 845.06,388.39 852.32,379.00
				 854.44,376.26 857.62,371.76 856.36,368.10
				 855.13,364.54 848.24,362.01 845.00,359.78
				 838.50,355.30 834.69,350.30 830.15,344.00
				 815.85,324.11 807.26,293.38 799.67,270.00
				 799.67,270.00 794.19,253.00 794.19,253.00
				 793.11,250.15 790.51,243.86 790.74,241.00
				 791.05,237.11 796.70,230.22 799.13,227.00
				 799.13,227.00 824.58,195.00 824.58,195.00
				 824.58,195.00 880.65,126.00 880.65,126.00
				 890.06,113.84 901.96,99.23 909.57,86.00
				 911.53,82.59 914.76,77.00 914.29,73.00
				 913.86,69.37 911.37,66.66 909.13,64.00
				 904.34,58.33 893.29,45.01 885.00,46.43
				 880.96,47.13 877.12,50.81 874.29,53.58
				 869.03,58.70 858.40,71.84 853.65,78.00
				 834.84,102.41 816.45,127.37 799.33,153.00
				 793.46,161.79 781.16,178.13 778.00,187.00
				 774.16,179.47 773.23,170.29 771.35,162.00
				 771.35,162.00 759.33,114.00 759.33,114.00
				 755.13,101.38 751.80,90.19 736.00,90.00
				 730.31,89.94 715.15,90.90 711.91,96.22
				 710.81,98.30 711.19,100.80 711.91,103.00
				 711.91,103.00 715.33,113.00 715.33,113.00
				 715.33,113.00 721.11,133.00 721.11,133.00
				 721.11,133.00 734.65,196.00 734.65,196.00
				 734.65,196.00 740.11,221.00 740.11,221.00
				 740.75,223.78 742.48,231.54 741.85,234.00
				 741.18,236.61 735.09,244.27 733.14,247.00
				 733.14,247.00 714.35,274.00 714.35,274.00
				 714.35,274.00 667.92,348.00 667.92,348.00
				 667.92,348.00 639.88,390.00 639.88,390.00
				 636.28,398.43 636.61,409.01 641.53,416.91
				 645.87,423.90 653.72,427.68 661.00,422.43
				 666.90,418.17 672.77,408.14 677.14,402.00
				 677.14,402.00 711.33,350.00 711.33,350.00
				 711.33,350.00 742.28,305.00 742.28,305.00
				 742.28,305.00 757.00,284.00 757.00,284.00 Z
			   M 267.00,206.00
			   C 267.00,206.00 284.83,190.29 284.83,190.29
				 284.83,190.29 297.32,177.83 297.32,177.83
				 316.28,157.18 338.06,121.87 321.17,94.00
				 318.63,89.80 315.56,85.89 311.91,82.59
				 304.33,75.72 300.91,74.68 292.00,70.70
				 284.01,67.12 271.77,64.11 263.00,64.00
				 263.00,64.00 253.00,64.00 253.00,64.00
				 224.74,64.04 182.58,81.42 158.00,95.14
				 146.45,101.59 129.30,112.84 120.09,122.09
				 108.09,134.14 104.83,147.33 111.62,163.00
				 113.80,168.04 120.57,176.84 126.95,175.63
				 131.53,174.77 132.19,168.64 133.78,165.00
				 135.62,160.81 138.66,157.24 142.01,154.17
				 154.08,143.13 179.98,127.23 195.00,120.00
				 195.00,120.00 147.80,242.00 147.80,242.00
				 147.80,242.00 137.80,269.00 137.80,269.00
				 132.77,281.79 126.68,296.06 127.01,310.00
				 127.36,324.30 140.64,340.35 154.00,336.20
				 161.85,333.76 161.48,327.75 162.80,321.00
				 162.80,321.00 173.42,284.00 173.42,284.00
				 174.98,278.69 181.04,257.23 183.51,254.10
				 186.44,250.39 195.48,246.44 200.00,244.26
				 200.00,244.26 210.00,239.73 210.00,239.73
				 221.12,234.17 231.05,228.16 244.00,228.00
				 248.57,227.95 252.52,227.81 257.00,228.90
				 259.71,229.56 262.62,230.51 265.00,231.99
				 283.93,243.79 266.28,271.77 256.55,284.00
				 238.87,306.23 207.52,330.46 182.00,343.25
				 169.92,349.30 153.64,355.94 140.00,356.00
				 132.34,356.03 125.65,355.31 119.00,351.03
				 113.69,347.62 110.24,341.76 106.10,342.74
				 101.60,343.81 99.92,352.10 100.10,356.00
				 100.67,367.99 108.38,379.49 118.00,386.23
				 139.31,401.14 166.83,393.42 189.00,384.55
				 215.63,373.90 244.51,356.03 264.99,335.96
				 264.99,335.96 273.09,327.00 273.09,327.00
				 284.65,314.53 294.38,301.75 301.13,286.00
				 311.17,262.55 312.93,230.04 289.00,214.10
				 281.96,209.42 275.17,207.54 267.00,206.00 Z
			   M 478.00,335.78
			   C 478.00,335.78 490.42,284.00 490.42,284.00
				 490.42,284.00 526.33,168.00 526.33,168.00
				 526.33,168.00 540.85,120.02 540.85,120.02
				 544.18,112.47 553.09,113.39 560.00,112.91
				 560.00,112.91 570.00,111.99 570.00,111.99
				 575.26,111.80 581.58,111.33 582.62,104.98
				 583.02,102.53 582.29,99.36 581.56,97.00
				 578.12,85.96 568.73,86.08 559.00,85.17
				 559.00,85.17 535.00,86.85 535.00,86.85
				 535.00,86.85 488.00,94.79 488.00,94.79
				 482.30,96.02 468.14,98.52 464.85,103.21
				 461.15,108.50 464.96,116.89 469.10,120.79
				 476.33,127.59 483.18,126.71 492.00,126.09
				 496.05,125.80 496.82,126.19 501.00,125.00
				 501.00,125.00 460.42,254.00 460.42,254.00
				 460.42,254.00 443.47,316.00 443.47,316.00
				 443.47,316.00 438.75,336.98 438.75,336.98
				 437.03,343.01 433.34,342.61 428.00,343.88
				 428.00,343.88 409.00,348.57 409.00,348.57
				 403.76,350.15 398.38,352.51 399.36,359.00
				 400.79,368.50 409.84,370.96 418.00,371.00
				 418.00,371.00 422.00,371.00 422.00,371.00
				 422.00,371.00 490.00,361.20 490.00,361.20
				 495.98,360.02 509.92,357.41 512.98,351.90
				 516.42,345.68 511.70,338.30 506.00,335.78
				 498.87,332.15 485.91,335.36 478.00,335.78 Z
			   M 578.00,254.00
			   C 581.83,247.79 583.63,239.11 586.00,232.00
				 588.81,223.57 596.82,201.80 596.54,194.00
				 596.45,191.23 595.51,187.42 593.99,185.09
				 590.78,180.18 580.71,175.27 575.04,178.18
				 571.87,179.80 569.25,183.99 567.45,187.00
				 562.74,194.90 559.40,203.49 556.00,212.00
				 546.33,236.16 537.77,260.82 531.12,286.00
				 528.78,294.85 524.21,310.22 524.01,319.00
				 523.61,336.76 538.00,347.40 547.96,341.72
				 550.43,340.31 552.23,338.17 553.99,335.99
				 560.97,327.31 567.81,313.92 573.42,304.00
				 583.14,286.84 593.56,269.96 605.15,254.00
				 610.64,246.44 621.25,231.36 629.00,227.00
				 629.00,227.00 619.58,265.00 619.58,265.00
				 617.32,275.24 612.12,300.41 612.00,310.00
				 611.93,315.95 611.54,322.45 613.96,328.00
				 619.60,340.88 634.68,344.98 647.00,339.49
				 660.83,333.32 672.14,317.28 680.50,305.00
				 683.10,301.19 688.27,294.31 689.35,290.00
				 691.74,280.42 682.40,285.85 679.00,289.04
				 672.73,294.92 662.89,305.66 656.00,310.26
				 648.68,315.15 646.78,306.60 647.18,301.00
				 648.65,280.64 662.12,247.31 668.66,227.00
				 670.94,219.91 677.90,202.70 675.40,196.00
				 671.93,186.70 652.47,181.10 640.00,188.47
				 631.06,193.76 627.62,198.80 620.91,206.00
				 620.91,206.00 593.41,237.00 593.41,237.00
				 589.31,241.89 582.72,250.32 578.00,254.00 Z
			   M 398.00,179.71
			   C 380.72,180.14 365.57,194.68 354.72,207.00
				 354.72,207.00 346.44,216.00 346.44,216.00
				 324.40,242.13 312.60,268.71 313.00,303.00
				 313.25,324.24 327.18,353.11 352.00,351.79
				 379.95,350.31 411.70,323.24 427.63,302.00
				 433.25,294.50 438.02,288.09 440.91,279.00
				 441.78,276.27 443.03,271.34 439.71,269.74
				 434.04,267.01 423.92,276.92 420.04,280.42
				 420.04,280.42 410.99,289.96 410.99,289.96
				 400.58,300.16 384.33,313.56 371.00,319.49
				 363.17,322.97 351.74,326.01 346.55,316.96
				 343.04,310.84 343.16,302.23 350.04,298.56
				 350.04,298.56 362.00,294.54 362.00,294.54
				 362.00,294.54 376.00,287.69 376.00,287.69
				 395.25,277.26 416.75,255.93 426.11,236.00
				 435.81,215.36 435.33,192.02 411.00,182.21
				 405.66,180.06 403.62,180.00 398.00,179.71 Z
			   M 541.00,393.73
			   C 541.00,393.73 482.00,395.17 482.00,395.17
				 482.00,395.17 429.00,400.28 429.00,400.28
				 393.06,404.76 357.13,411.59 322.00,420.37
				 322.00,420.37 271.00,433.86 271.00,433.86
				 265.54,435.78 256.73,438.60 258.04,446.00
				 259.12,452.04 268.24,461.55 274.00,463.35
				 276.28,464.07 279.59,464.04 282.00,463.99
				 289.28,463.81 308.59,457.48 317.00,455.37
				 317.00,455.37 389.00,438.66 389.00,438.66
				 427.72,430.40 480.44,423.63 520.00,420.91
				 520.00,420.91 566.00,418.00 566.00,418.00
				 566.00,418.00 581.00,417.00 581.00,417.00
				 581.00,417.00 606.00,416.28 606.00,416.28
				 608.78,415.94 612.44,416.13 614.69,414.26
				 618.83,410.82 615.57,405.15 612.79,402.04
				 606.29,394.77 595.20,394.01 586.00,393.73
				 586.00,393.73 561.00,393.73 561.00,393.73
				 561.00,393.73 550.00,393.73 550.00,393.73
				 550.00,393.73 541.00,393.73 541.00,393.73 Z" />
	</g>
</svg>
