<?xml version="1.0" encoding="UTF-8" standalone="no"?>
<!DOCTYPE svg PUBLIC "-//W3C//DTD SVG 20010904//EN"
              "http://www.w3.org/TR/2001/REC-SVG-20010904/DTD/svg10.dtd">

<svg xmlns="http://www.w3.org/2000/svg" viewBox="0 0 512 512">
<circle cx="256" cy="256" r="277" stroke="none" stroke-width="4" fill="#c4c4bb" />
<g transform="translate(-80, 0)">
  <path id="Auswahl"
        fill="darkblue" stroke="darkred" stroke-width="3"
        d="M 404.00,205.00
           C 408.82,212.44 404.31,223.82 400.75,231.00
             391.34,249.99 372.89,267.80 355.00,279.00
             356.91,271.94 360.49,265.51 363.75,259.00
             371.90,242.76 389.80,215.76 404.00,205.00 Z
           M 229.00,108.00
           C 242.60,101.03 261.87,98.12 277.00,100.30
             290.28,102.21 295.55,109.28 289.68,122.00
             284.39,133.44 275.50,142.78 267.17,152.00
             250.01,171.00 220.78,195.37 199.00,209.00
             200.22,202.49 204.88,193.32 207.57,187.00
             207.57,187.00 224.95,145.00 224.95,145.00
             227.88,137.18 233.18,124.34 231.66,116.00
             231.66,116.00 229.00,108.00 229.00,108.00 Z
           M 267.00,206.00
           C 267.00,206.00 284.83,190.29 284.83,190.29
             284.83,190.29 297.32,177.83 297.32,177.83
             316.28,157.18 338.06,121.87 321.17,94.00
             318.63,89.80 315.56,85.89 311.91,82.59
             304.33,75.72 300.91,74.68 292.00,70.70
             284.01,67.12 271.77,64.11 263.00,64.00
             263.00,64.00 253.00,64.00 253.00,64.00
             224.74,64.04 182.58,81.42 158.00,95.14
             146.45,101.59 129.30,112.84 120.09,122.09
             108.09,134.14 104.83,147.33 111.62,163.00
             113.80,168.04 120.57,176.84 126.95,175.63
             131.53,174.77 132.19,168.64 133.78,165.00
             135.62,160.81 138.66,157.24 142.01,154.17
             154.08,143.13 179.98,127.23 195.00,120.00
             195.00,120.00 147.80,242.00 147.80,242.00
             147.80,242.00 137.80,269.00 137.80,269.00
             132.77,281.79 126.68,296.06 127.01,310.00
             127.36,324.30 140.64,340.35 154.00,336.20
             161.85,333.76 161.48,327.75 162.80,321.00
             162.80,321.00 173.42,284.00 173.42,284.00
             174.98,278.69 181.04,257.23 183.51,254.10
             186.44,250.39 195.48,246.44 200.00,244.26
             200.00,244.26 210.00,239.73 210.00,239.73
             221.12,234.17 231.05,228.16 244.00,228.00
             248.57,227.95 252.52,227.81 257.00,228.90
             259.71,229.56 262.62,230.51 265.00,231.99
             283.93,243.79 266.28,271.77 256.55,284.00
             238.87,306.23 207.52,330.46 182.00,343.25
             169.92,349.30 153.64,355.94 140.00,356.00
             132.34,356.03 125.65,355.31 119.00,351.03
             113.69,347.62 110.24,341.76 106.10,342.74
             101.60,343.81 99.92,352.10 100.10,356.00
             100.67,367.99 108.38,379.49 118.00,386.23
             139.31,401.14 166.83,393.42 189.00,384.55
             215.63,373.90 244.51,356.03 264.99,335.96
             264.99,335.96 273.09,327.00 273.09,327.00
             284.65,314.53 294.38,301.75 301.13,286.00
             311.17,262.55 312.93,230.04 289.00,214.10
             281.96,209.42 275.17,207.54 267.00,206.00 Z
           M 478.00,335.78
           C 478.00,335.78 490.42,284.00 490.42,284.00
             490.42,284.00 526.33,168.00 526.33,168.00
             526.33,168.00 540.85,120.02 540.85,120.02
             544.18,112.47 553.09,113.39 560.00,112.91
             560.00,112.91 570.00,111.99 570.00,111.99
             575.26,111.80 581.58,111.33 582.62,104.98
             583.02,102.53 582.29,99.36 581.56,97.00
             578.12,85.96 568.73,86.08 559.00,85.17
             559.00,85.17 535.00,86.85 535.00,86.85
             535.00,86.85 488.00,94.79 488.00,94.79
             482.30,96.02 468.14,98.52 464.85,103.21
             461.15,108.50 464.96,116.89 469.10,120.79
             476.33,127.59 483.18,126.71 492.00,126.09
             496.05,125.80 496.82,126.19 501.00,125.00
             501.00,125.00 460.42,254.00 460.42,254.00
             460.42,254.00 443.47,316.00 443.47,316.00
             443.47,316.00 438.75,336.98 438.75,336.98
             437.03,343.01 433.34,342.61 428.00,343.88
             428.00,343.88 409.00,348.57 409.00,348.57
             403.76,350.15 398.38,352.51 399.36,359.00
             400.79,368.50 409.84,370.96 418.00,371.00
             418.00,371.00 422.00,371.00 422.00,371.00
             422.00,371.00 490.00,361.20 490.00,361.20
             495.98,360.02 509.92,357.41 512.98,351.90
             516.42,345.68 511.70,338.30 506.00,335.78
             498.87,332.15 485.91,335.36 478.00,335.78 Z
           M 398.00,179.71
           C 380.72,180.14 365.57,194.68 354.72,207.00
             354.72,207.00 346.44,216.00 346.44,216.00
             324.40,242.13 312.60,268.71 313.00,303.00
             313.25,324.24 327.18,353.11 352.00,351.79
             379.95,350.31 411.70,323.24 427.63,302.00
             433.25,294.50 438.02,288.09 440.91,279.00
             441.78,276.27 443.03,271.34 439.71,269.74
             434.04,267.01 423.92,276.92 420.04,280.42
             420.04,280.42 410.99,289.96 410.99,289.96
             400.58,300.16 384.33,313.56 371.00,319.49
             363.17,322.97 351.74,326.01 346.55,316.96
             343.04,310.84 343.16,302.23 350.04,298.56
             350.04,298.56 362.00,294.54 362.00,294.54
             362.00,294.54 376.00,287.69 376.00,287.69
             395.25,277.26 416.75,255.93 426.11,236.00
             435.81,215.36 435.33,192.02 411.00,182.21
             405.66,180.06 403.62,180.00 398.00,179.71 Z" />
 </g>
</svg>
